{
    "asset" : {
        "generator" : "Khronos glTF Blender I/O v1.7.33",
        "version" : "2.0"
    },
    "scene" : 0,
    "scenes" : [
        {
            "name" : "Scene",
            "nodes" : [
                0
            ]
        }
    ],
    "nodes" : [
        {
            "mesh" : 0,
            "name" : "FourDeck",
            "rotation" : [
                -0.7071067690849304,
                0,
                0,
                0.7071068286895752
            ],
            "scale" : [
                0.0869232714176178,
                0.012918778695166111,
                0.0869232714176178
            ],
            "translation" : [
                0,
                1.2732477188110352,
                -1.9082071781158447
            ]
        }
    ],
    "materials" : [
        {
            "doubleSided" : true,
            "name" : "Wood",
            "pbrMetallicRoughness" : {
                "baseColorFactor" : [
                    0.4452012777328491,
                    0.21223080158233643,
                    0.09989874809980392,
                    1
                ],
                "metallicFactor" : 0,
                "roughnessFactor" : 0.5
            }
        },
        {
            "doubleSided" : true,
            "name" : "Fabric",
            "pbrMetallicRoughness" : {
                "baseColorFactor" : [
                    0.8000001907348633,
                    0.7059595584869385,
                    0.5128419399261475,
                    1
                ],
                "metallicFactor" : 0,
                "roughnessFactor" : 0.5
            }
        },
        {
            "doubleSided" : true,
            "name" : "DarkWood",
            "pbrMetallicRoughness" : {
                "baseColorFactor" : [
                    0.2738308310508728,
                    0.13255003094673157,
                    0.06372219324111938,
                    1
                ],
                "metallicFactor" : 0,
                "roughnessFactor" : 0.5
            }
        },
        {
            "doubleSided" : true,
            "name" : "LightWood",
            "pbrMetallicRoughness" : {
                "baseColorFactor" : [
                    0.723041296005249,
                    0.34038275480270386,
                    0.1574365198612213,
                    1
                ],
                "metallicFactor" : 0,
                "roughnessFactor" : 0.5
            }
        },
        {
            "doubleSided" : true,
            "name" : "DarkRed",
            "pbrMetallicRoughness" : {
                "baseColorFactor" : [
                    0.47698891162872314,
                    0.05061548203229904,
                    0.06254315376281738,
                    1
                ],
                "metallicFactor" : 0,
                "roughnessFactor" : 0.5
            }
        }
    ],
    "meshes" : [
        {
            "name" : "Cylinder.007",
            "primitives" : [
                {
                    "attributes" : {
                        "POSITION" : 0,
                        "NORMAL" : 1
                    },
                    "indices" : 2,
                    "material" : 0
                },
                {
                    "attributes" : {
                        "POSITION" : 3,
                        "NORMAL" : 4
                    },
                    "indices" : 5,
                    "material" : 1
                },
                {
                    "attributes" : {
                        "POSITION" : 6,
                        "NORMAL" : 7
                    },
                    "indices" : 8,
                    "material" : 2
                },
                {
                    "attributes" : {
                        "POSITION" : 9,
                        "NORMAL" : 10
                    },
                    "indices" : 11,
                    "material" : 3
                },
                {
                    "attributes" : {
                        "POSITION" : 12,
                        "NORMAL" : 13
                    },
                    "indices" : 14,
                    "material" : 4
                }
            ]
        }
    ],
    "accessors" : [
        {
            "bufferView" : 0,
            "componentType" : 5126,
            "count" : 1782,
            "max" : [
                8.630839347839355,
                53.89674377441406,
                25.377574920654297
            ],
            "min" : [
                -8.630840301513672,
                -281.357666015625,
                -15.935885429382324
            ],
            "type" : "VEC3"
        },
        {
            "bufferView" : 1,
            "componentType" : 5126,
            "count" : 1782,
            "type" : "VEC3"
        },
        {
            "bufferView" : 2,
            "componentType" : 5123,
            "count" : 3120,
            "type" : "SCALAR"
        },
        {
            "bufferView" : 3,
            "componentType" : 5126,
            "count" : 848,
            "max" : [
                9.750316619873047,
                -67.7747573852539,
                25.377574920654297
            ],
            "min" : [
                -9.75031852722168,
                -411.71923828125,
                -5.807920455932617
            ],
            "type" : "VEC3"
        },
        {
            "bufferView" : 4,
            "componentType" : 5126,
            "count" : 848,
            "type" : "VEC3"
        },
        {
            "bufferView" : 5,
            "componentType" : 5123,
            "count" : 1308,
            "type" : "SCALAR"
        },
        {
            "bufferView" : 6,
            "componentType" : 5126,
            "count" : 4511,
            "max" : [
                5.309581756591797,
                51.3929443359375,
                28.189861297607422
            ],
            "min" : [
                -5.309581756591797,
                -439.6040344238281,
                -15.935885429382324
            ],
            "type" : "VEC3"
        },
        {
            "bufferView" : 7,
            "componentType" : 5126,
            "count" : 4511,
            "type" : "VEC3"
        },
        {
            "bufferView" : 8,
            "componentType" : 5123,
            "count" : 6840,
            "type" : "SCALAR"
        },
        {
            "bufferView" : 9,
            "componentType" : 5126,
            "count" : 92,
            "max" : [
                5.66424560546875,
                -2.4956207275390625,
                0.9409074783325195
            ],
            "min" : [
                -5.66424560546875,
                -270.96331787109375,
                -7.6636810302734375
            ],
            "type" : "VEC3"
        },
        {
            "bufferView" : 10,
            "componentType" : 5126,
            "count" : 92,
            "type" : "VEC3"
        },
        {
            "bufferView" : 11,
            "componentType" : 5123,
            "count" : 186,
            "type" : "SCALAR"
        },
        {
            "bufferView" : 12,
            "componentType" : 5126,
            "count" : 240,
            "max" : [
                0.07748063653707504,
                -50.92711639404297,
                28.352352142333984
            ],
            "min" : [
                -0.0774809792637825,
                -234.35157775878906,
                18.093730926513672
            ],
            "type" : "VEC3"
        },
        {
            "bufferView" : 13,
            "componentType" : 5126,
            "count" : 240,
            "type" : "VEC3"
        },
        {
            "bufferView" : 14,
            "componentType" : 5123,
            "count" : 360,
            "type" : "SCALAR"
        }
    ],
    "bufferViews" : [
        {
            "buffer" : 0,
            "byteLength" : 21384,
            "byteOffset" : 0
        },
        {
            "buffer" : 0,
            "byteLength" : 21384,
            "byteOffset" : 21384
        },
        {
            "buffer" : 0,
            "byteLength" : 6240,
            "byteOffset" : 42768
        },
        {
            "buffer" : 0,
            "byteLength" : 10176,
            "byteOffset" : 49008
        },
        {
            "buffer" : 0,
            "byteLength" : 10176,
            "byteOffset" : 59184
        },
        {
            "buffer" : 0,
            "byteLength" : 2616,
            "byteOffset" : 69360
        },
        {
            "buffer" : 0,
            "byteLength" : 54132,
            "byteOffset" : 71976
        },
        {
            "buffer" : 0,
            "byteLength" : 54132,
            "byteOffset" : 126108
        },
        {
            "buffer" : 0,
            "byteLength" : 13680,
            "byteOffset" : 180240
        },
        {
            "buffer" : 0,
            "byteLength" : 1104,
            "byteOffset" : 193920
        },
        {
            "buffer" : 0,
            "byteLength" : 1104,
            "byteOffset" : 195024
        },
        {
            "buffer" : 0,
            "byteLength" : 372,
            "byteOffset" : 196128
        },
        {
            "buffer" : 0,
            "byteLength" : 2880,
            "byteOffset" : 196500
        },
        {
            "buffer" : 0,
            "byteLength" : 2880,
            "byteOffset" : 199380
        },
        {
            "buffer" : 0,
            "byteLength" : 720,
            "byteOffset" : 202260
        }
    ],
    "buffers" : [
        {
            "byteLength" : 202980,
            "uri" : "data:application/octet-stream;base64,"
        }
    ]
}
