{
    "asset" : {
        "generator" : "Khronos glTF Blender I/O v1.7.33",
        "version" : "2.0"
    },
    "scene" : 0,
    "scenes" : [
        {
            "name" : "Scene",
            "nodes" : [
                1
            ]
        }
    ],
    "nodes" : [
        {
            "mesh" : 0,
            "name" : "Viking Ship",
            "scale" : [
                0.30000001192092896,
                0.30000001192092896,
                0.30000001192092896
            ],
            "translation" : [
                0.004069752525538206,
                0.0030068159103393555,
                -0.014438221231102943
            ]
        },
        {
            "children" : [
                0
            ],
            "name" : "threeDeck"
        }
    ],
    "materials" : [
        {
            "doubleSided" : true,
            "name" : "DarkWood",
            "pbrMetallicRoughness" : {
                "baseColorFactor" : [
                    0.43965721130371094,
                    0.21223080158233643,
                    0.09530746936798096,
                    1
                ],
                "metallicFactor" : 0,
                "roughnessFactor" : 0.5
            }
        },
        {
            "doubleSided" : true,
            "name" : "Wood",
            "pbrMetallicRoughness" : {
                "baseColorFactor" : [
                    0.5583405494689941,
                    0.26635563373565674,
                    0.11953847110271454,
                    1
                ],
                "metallicFactor" : 0,
                "roughnessFactor" : 0.5
            }
        },
        {
            "doubleSided" : true,
            "name" : "LightWood",
            "pbrMetallicRoughness" : {
                "baseColorFactor" : [
                    0.6583750247955322,
                    0.3613068461418152,
                    0.18782080709934235,
                    1
                ],
                "metallicFactor" : 0,
                "roughnessFactor" : 0.5
            }
        },
        {
            "doubleSided" : true,
            "name" : "White",
            "pbrMetallicRoughness" : {
                "baseColorFactor" : [
                    0.7480654716491699,
                    0.8000001907348633,
                    0.6152136325836182,
                    1
                ],
                "metallicFactor" : 0,
                "roughnessFactor" : 0.5
            }
        },
        {
            "doubleSided" : true,
            "name" : "Red",
            "pbrMetallicRoughness" : {
                "baseColorFactor" : [
                    0.8000003695487976,
                    0.12909291684627533,
                    0.09950223565101624,
                    1
                ],
                "metallicFactor" : 0,
                "roughnessFactor" : 0.5
            }
        }
    ],
    "meshes" : [
        {
            "name" : "Cylinder",
            "primitives" : [
                {
                    "attributes" : {
                        "POSITION" : 0,
                        "NORMAL" : 1
                    },
                    "indices" : 2,
                    "material" : 0
                },
                {
                    "attributes" : {
                        "POSITION" : 3,
                        "NORMAL" : 4
                    },
                    "indices" : 5,
                    "material" : 1
                },
                {
                    "attributes" : {
                        "POSITION" : 6,
                        "NORMAL" : 7
                    },
                    "indices" : 8,
                    "material" : 2
                },
                {
                    "attributes" : {
                        "POSITION" : 9,
                        "NORMAL" : 10
                    },
                    "indices" : 11,
                    "material" : 3
                },
                {
                    "attributes" : {
                        "POSITION" : 12,
                        "NORMAL" : 13
                    },
                    "indices" : 14,
                    "material" : 4
                }
            ]
        }
    ],
    "accessors" : [
        {
            "bufferView" : 0,
            "componentType" : 5126,
            "count" : 1322,
            "max" : [
                1.8364242315292358,
                8.312753677368164,
                7.663333415985107
            ],
            "min" : [
                -1.8131685256958008,
                -0.051067452877759933,
                -6.341546058654785
            ],
            "type" : "VEC3"
        },
        {
            "bufferView" : 1,
            "componentType" : 5126,
            "count" : 1322,
            "type" : "VEC3"
        },
        {
            "bufferView" : 2,
            "componentType" : 5123,
            "count" : 2004,
            "type" : "SCALAR"
        },
        {
            "bufferView" : 3,
            "componentType" : 5126,
            "count" : 262,
            "max" : [
                1.0298826694488525,
                2.642864465713501,
                6.257876396179199
            ],
            "min" : [
                -1.0298826694488525,
                0.2886594533920288,
                -6.095719337463379
            ],
            "type" : "VEC3"
        },
        {
            "bufferView" : 4,
            "componentType" : 5126,
            "count" : 262,
            "type" : "VEC3"
        },
        {
            "bufferView" : 5,
            "componentType" : 5123,
            "count" : 396,
            "type" : "SCALAR"
        },
        {
            "bufferView" : 6,
            "componentType" : 5126,
            "count" : 1232,
            "max" : [
                2.5129218101501465,
                2.058458089828491,
                4.895558834075928
            ],
            "min" : [
                -2.5129218101501465,
                0.5852967500686646,
                -4.562060356140137
            ],
            "type" : "VEC3"
        },
        {
            "bufferView" : 7,
            "componentType" : 5126,
            "count" : 1232,
            "type" : "VEC3"
        },
        {
            "bufferView" : 8,
            "componentType" : 5123,
            "count" : 1848,
            "type" : "SCALAR"
        },
        {
            "bufferView" : 9,
            "componentType" : 5126,
            "count" : 168,
            "max" : [
                1.8773517608642578,
                8.312746047973633,
                1.2690232992172241
            ],
            "min" : [
                -1.85409677028656,
                2.6519486904144287,
                0.3695879578590393
            ],
            "type" : "VEC3"
        },
        {
            "bufferView" : 10,
            "componentType" : 5126,
            "count" : 168,
            "type" : "VEC3"
        },
        {
            "bufferView" : 11,
            "componentType" : 5123,
            "count" : 252,
            "type" : "SCALAR"
        },
        {
            "bufferView" : 12,
            "componentType" : 5126,
            "count" : 280,
            "max" : [
                2.6236414909362793,
                8.312746047973633,
                1.2690232992172241
            ],
            "min" : [
                -2.600385904312134,
                2.6519486904144287,
                0.19131487607955933
            ],
            "type" : "VEC3"
        },
        {
            "bufferView" : 13,
            "componentType" : 5126,
            "count" : 280,
            "type" : "VEC3"
        },
        {
            "bufferView" : 14,
            "componentType" : 5123,
            "count" : 420,
            "type" : "SCALAR"
        }
    ],
    "bufferViews" : [
        {
            "buffer" : 0,
            "byteLength" : 15864,
            "byteOffset" : 0
        },
        {
            "buffer" : 0,
            "byteLength" : 15864,
            "byteOffset" : 15864
        },
        {
            "buffer" : 0,
            "byteLength" : 4008,
            "byteOffset" : 31728
        },
        {
            "buffer" : 0,
            "byteLength" : 3144,
            "byteOffset" : 35736
        },
        {
            "buffer" : 0,
            "byteLength" : 3144,
            "byteOffset" : 38880
        },
        {
            "buffer" : 0,
            "byteLength" : 792,
            "byteOffset" : 42024
        },
        {
            "buffer" : 0,
            "byteLength" : 14784,
            "byteOffset" : 42816
        },
        {
            "buffer" : 0,
            "byteLength" : 14784,
            "byteOffset" : 57600
        },
        {
            "buffer" : 0,
            "byteLength" : 3696,
            "byteOffset" : 72384
        },
        {
            "buffer" : 0,
            "byteLength" : 2016,
            "byteOffset" : 76080
        },
        {
            "buffer" : 0,
            "byteLength" : 2016,
            "byteOffset" : 78096
        },
        {
            "buffer" : 0,
            "byteLength" : 504,
            "byteOffset" : 80112
        },
        {
            "buffer" : 0,
            "byteLength" : 3360,
            "byteOffset" : 80616
        },
        {
            "buffer" : 0,
            "byteLength" : 3360,
            "byteOffset" : 83976
        },
        {
            "buffer" : 0,
            "byteLength" : 840,
            "byteOffset" : 87336
        }
    ],
    "buffers" : [
        {
            "byteLength" : 88176,
            "uri" : "data:application/octet-stream;base64,"
        }
    ]
}
