{
    "asset" : {
        "generator" : "Khronos glTF Blender I/O v1.7.33",
        "version" : "2.0"
    },
    "scene" : 0,
    "scenes" : [
        {
            "name" : "Scene",
            "nodes" : [
                0
            ]
        }
    ],
    "nodes" : [
        {
            "mesh" : 0,
            "name" : "twoDeck",
            "translation" : [
                -0.010335687547922134,
                0.040257275104522705,
                0.1419045478105545
            ]
        }
    ],
    "materials" : [
        {
            "doubleSided" : true,
            "name" : "DarkWood",
            "pbrMetallicRoughness" : {
                "baseColorFactor" : [
                    0.1946178674697876,
                    0.08865559101104736,
                    0.04970657825469971,
                    1
                ],
                "metallicFactor" : 0,
                "roughnessFactor" : 0.5
            }
        },
        {
            "doubleSided" : true,
            "name" : "Sail",
            "pbrMetallicRoughness" : {
                "baseColorFactor" : [
                    0.626662015914917,
                    0.5442519783973694,
                    0.3619402348995209,
                    1
                ],
                "metallicFactor" : 0,
                "roughnessFactor" : 0.5
            }
        },
        {
            "doubleSided" : true,
            "name" : "LightWood",
            "pbrMetallicRoughness" : {
                "baseColorFactor" : [
                    0.5488520860671997,
                    0.25860631465911865,
                    0.12148340046405792,
                    1
                ],
                "metallicFactor" : 0,
                "roughnessFactor" : 0.5
            }
        },
        {
            "doubleSided" : true,
            "name" : "Steel",
            "pbrMetallicRoughness" : {
                "baseColorFactor" : [
                    0.4109385311603546,
                    0.4109385311603546,
                    0.4109385311603546,
                    1
                ],
                "metallicFactor" : 0,
                "roughnessFactor" : 0.5
            }
        }
    ],
    "meshes" : [
        {
            "name" : "Cube.005",
            "primitives" : [
                {
                    "attributes" : {
                        "POSITION" : 0,
                        "NORMAL" : 1
                    },
                    "indices" : 2,
                    "material" : 0
                },
                {
                    "attributes" : {
                        "POSITION" : 3,
                        "NORMAL" : 4
                    },
                    "indices" : 5,
                    "material" : 1
                },
                {
                    "attributes" : {
                        "POSITION" : 6,
                        "NORMAL" : 7
                    },
                    "indices" : 8,
                    "material" : 2
                },
                {
                    "attributes" : {
                        "POSITION" : 9,
                        "NORMAL" : 10
                    },
                    "indices" : 11,
                    "material" : 3
                }
            ]
        }
    ],
    "accessors" : [
        {
            "bufferView" : 0,
            "componentType" : 5126,
            "count" : 626,
            "max" : [
                0.20160870254039764,
                0.8097674250602722,
                0.4187864363193512
            ],
            "min" : [
                -0.20160868763923645,
                -0.044948089867830276,
                -0.5702508091926575
            ],
            "type" : "VEC3"
        },
        {
            "bufferView" : 1,
            "componentType" : 5126,
            "count" : 626,
            "type" : "VEC3"
        },
        {
            "bufferView" : 2,
            "componentType" : 5123,
            "count" : 1020,
            "type" : "SCALAR"
        },
        {
            "bufferView" : 3,
            "componentType" : 5126,
            "count" : 94,
            "max" : [
                0.00402500294148922,
                0.5390685796737671,
                0.4187864363193512
            ],
            "min" : [
                -0.00402500294148922,
                0.1618911176919937,
                -0.2783224582672119
            ],
            "type" : "VEC3"
        },
        {
            "bufferView" : 4,
            "componentType" : 5126,
            "count" : 94,
            "type" : "VEC3"
        },
        {
            "bufferView" : 5,
            "componentType" : 5123,
            "count" : 138,
            "type" : "SCALAR"
        },
        {
            "bufferView" : 6,
            "componentType" : 5126,
            "count" : 788,
            "max" : [
                0.20160870254039764,
                0.11755602061748505,
                0.25925666093826294
            ],
            "min" : [
                -0.20160868763923645,
                -0.044948089867830276,
                -0.5702508091926575
            ],
            "type" : "VEC3"
        },
        {
            "bufferView" : 7,
            "componentType" : 5126,
            "count" : 788,
            "type" : "VEC3"
        },
        {
            "bufferView" : 8,
            "componentType" : 5123,
            "count" : 1230,
            "type" : "SCALAR"
        },
        {
            "bufferView" : 9,
            "componentType" : 5126,
            "count" : 416,
            "max" : [
                -0.020676039159297943,
                0.08330647647380829,
                -0.3816070556640625
            ],
            "min" : [
                -0.1315981149673462,
                0.0242210254073143,
                -0.49252912402153015
            ],
            "type" : "VEC3"
        },
        {
            "bufferView" : 10,
            "componentType" : 5126,
            "count" : 416,
            "type" : "VEC3"
        },
        {
            "bufferView" : 11,
            "componentType" : 5123,
            "count" : 672,
            "type" : "SCALAR"
        }
    ],
    "bufferViews" : [
        {
            "buffer" : 0,
            "byteLength" : 7512,
            "byteOffset" : 0
        },
        {
            "buffer" : 0,
            "byteLength" : 7512,
            "byteOffset" : 7512
        },
        {
            "buffer" : 0,
            "byteLength" : 2040,
            "byteOffset" : 15024
        },
        {
            "buffer" : 0,
            "byteLength" : 1128,
            "byteOffset" : 17064
        },
        {
            "buffer" : 0,
            "byteLength" : 1128,
            "byteOffset" : 18192
        },
        {
            "buffer" : 0,
            "byteLength" : 276,
            "byteOffset" : 19320
        },
        {
            "buffer" : 0,
            "byteLength" : 9456,
            "byteOffset" : 19596
        },
        {
            "buffer" : 0,
            "byteLength" : 9456,
            "byteOffset" : 29052
        },
        {
            "buffer" : 0,
            "byteLength" : 2460,
            "byteOffset" : 38508
        },
        {
            "buffer" : 0,
            "byteLength" : 4992,
            "byteOffset" : 40968
        },
        {
            "buffer" : 0,
            "byteLength" : 4992,
            "byteOffset" : 45960
        },
        {
            "buffer" : 0,
            "byteLength" : 1344,
            "byteOffset" : 50952
        }
    ],
    "buffers" : [
        {
            "byteLength" : 52296,
            "uri" : "data:application/octet-stream;base64,"
        }
    ]
}
